# xmcd
#
# Track frame offsets: 
#        150
#        13989
#        29247
#        42002
#        54493
#        67138
#        83706
#        101730
#        130804
#        154008
#        175703
#        191964
#        209949
#        230052
#        255152
#
# Disc length: 3550 seconds
#
# Revision: 1
# Processed by: cddbd v1.5.2PL0 Copyright (c) Steve Scherf et al.
# Submitted via: ExactAudioCopy v1.0b3
#
DISCID=db0ddc0f
DTITLE=Sam Lay Blues Band - I'm The One
DYEAR=2009
DGENRE=Blues
TTITLE0=Ride 'em On Down
TTITLE1=I'm The One
TTITLE2=Both Sides Of The Fence
TTITLE3=Mojo Hand
TTITLE4=Sam Lay Shuffle
TTITLE5=Don't Mess With Me Baby
TTITLE6=Alabama Crawl
TTITLE7=Eight Feet Baby
TTITLE8=Poison Ivy
TTITLE9=Red Line
TTITLE10=That's All Right Mama
TTITLE11=Shoogie Woogie
TTITLE12=Ride 'em On Down (Alt Version)
TTITLE13=I'm The One (Alt Version)
TTITLE14=Sam Lay Shuffle (Alt Version)
EXTD=
EXTT0=
EXTT1=
EXTT2=
EXTT3=
EXTT4=
EXTT5=
EXTT6=
EXTT7=
EXTT8=
EXTT9=
EXTT10=
EXTT11=
EXTT12=
EXTT13=
EXTT14=
PLAYORDER=
